<?xml version="1.0" standalone="no"?>
<!DOCTYPE svg PUBLIC "-//W3C//DTD SVG 20010904//EN"
 "http://www.w3.org/TR/2001/REC-SVG-20010904/DTD/svg10.dtd">
<svg version="1.0" xmlns="http://www.w3.org/2000/svg"
 width="899.000000pt" height="899.000000pt" viewBox="0 0 899.000000 899.000000"
 preserveAspectRatio="xMidYMid meet">
<metadata>
Created by potrace 1.14, written by Peter Selinger 2001-2017
</metadata>
<g transform="translate(0.000000,899.000000) scale(0.100000,-0.100000)"
fill="#000000" stroke="none">
<path d="M3628 8514 c-5 -5 -40 -10 -81 -13 -22 -1 -55 -71 -61 -127 -4 -48
14 -122 49 -198 l26 -57 -36 -45 -37 -44 45 -20 c51 -23 82 -52 48 -45 -12 2
-25 -3 -31 -13 -5 -9 -10 -13 -10 -8 0 5 -9 1 -19 -8 -11 -10 -25 -15 -32 -10
-8 4 -10 3 -5 -5 5 -7 -5 -26 -26 -46 -45 -47 -58 -63 -58 -74 0 -5 -7 -12
-16 -15 -9 -4 -14 -13 -10 -21 3 -8 1 -15 -5 -15 -6 0 -8 -4 -4 -9 3 -5 1 -12
-5 -16 -6 -4 -8 -11 -5 -16 4 -5 1 -9 -6 -9 -7 0 -9 -3 -6 -7 4 -3 0 -17 -9
-31 -10 -15 -11 -21 -3 -17 9 6 10 3 5 -11 -5 -10 -10 -30 -11 -44 -2 -14 -3
-29 -4 -33 -1 -5 -6 -5 -13 -1 -7 4 -8 3 -4 -5 4 -6 2 -19 -6 -28 -9 -12 -9
-15 -1 -9 9 5 11 2 7 -8 -3 -9 -10 -16 -16 -16 -5 0 -6 -4 -3 -10 3 -5 3 -16
-2 -22 -4 -7 -8 -17 -8 -23 -1 -5 -6 -9 -12 -8 -6 1 -9 -6 -6 -17 3 -11 0 -20
-6 -20 -5 0 -8 -7 -5 -15 4 -8 1 -15 -6 -15 -7 0 -10 -6 -7 -14 3 -7 -1 -23
-9 -35 -8 -12 -12 -26 -9 -31 3 -6 1 -10 -5 -10 -6 0 -9 -4 -5 -9 3 -5 1 -12
-5 -16 -6 -4 -8 -11 -5 -16 4 -5 1 -9 -5 -9 -6 0 -9 -3 -7 -8 3 -4 -3 -24 -13
-45 -10 -20 -13 -34 -7 -30 7 3 5 -2 -4 -13 -9 -10 -15 -27 -14 -37 2 -11 1
-16 -2 -13 -3 3 -18 -3 -33 -14 -15 -11 -30 -17 -34 -13 -3 3 -6 1 -6 -5 0 -7
-7 -12 -15 -12 -8 0 -15 -5 -15 -11 0 -5 -4 -8 -9 -4 -6 3 -14 -3 -20 -12 -6
-10 -11 -14 -11 -10 0 12 -50 -41 -50 -53 0 -6 -4 -9 -9 -6 -9 6 -26 -22 -23
-36 1 -5 -4 -8 -12 -8 -12 0 -30 -34 -27 -52 1 -5 -4 -8 -10 -8 -6 0 -9 -9 -6
-20 3 -11 0 -18 -6 -17 -11 2 -13 -4 -16 -44 0 -11 -5 -17 -11 -14 -5 3 -10 1
-10 -4 0 -6 6 -11 13 -11 7 0 8 -3 2 -8 -12 -8 -16 -33 -19 -117 -1 -33 -5
-66 -10 -73 -4 -7 -1 -14 7 -17 8 -4 13 -19 12 -38 -1 -18 6 -41 14 -51 11
-13 12 -17 3 -12 -12 7 -12 4 -1 -15 7 -13 12 -27 11 -31 -1 -5 2 -8 8 -8 5 0
7 -7 4 -15 -4 -8 -1 -15 5 -15 6 0 8 -7 5 -15 -4 -8 -2 -15 3 -15 5 0 15 -16
23 -35 8 -19 18 -35 22 -35 5 0 6 -4 3 -10 -3 -5 -1 -10 5 -10 6 0 8 -4 5 -10
-3 -5 -2 -10 3 -10 5 0 14 -12 20 -26 7 -14 16 -23 21 -20 11 7 23 -22 14 -37
-4 -6 0 -8 8 -6 8 3 24 -5 36 -18 12 -13 19 -23 15 -23 -4 0 8 -10 26 -21 17
-12 32 -26 32 -32 0 -6 3 -8 6 -4 3 3 16 -4 29 -16 21 -20 22 -24 8 -46 -8
-13 -11 -21 -5 -17 5 3 12 -1 15 -9 4 -10 1 -12 -11 -8 -15 6 -15 5 -3 -10 7
-9 10 -17 6 -17 -4 0 -2 -7 5 -15 7 -9 11 -18 8 -21 -6 -6 54 -72 62 -68 3 1
6 -13 7 -32 0 -21 -3 -31 -10 -27 -6 4 -7 1 -3 -6 10 -16 15 -61 7 -61 -5 0
-8 -25 -13 -162 -1 -29 -6 -45 -12 -41 -6 3 -5 0 2 -8 6 -7 12 -17 12 -22 0
-4 -6 -5 -12 -1 -9 5 -9 2 1 -9 7 -9 9 -17 4 -17 -6 0 -9 -14 -7 -31 3 -20 0
-28 -8 -23 -7 5 -8 3 -2 -7 5 -8 9 -21 9 -29 1 -41 52 -53 75 -17 6 11 7 17 2
13 -5 -3 -9 1 -9 9 0 8 4 12 9 9 4 -3 8 1 8 8 0 10 2 10 9 0 4 -8 12 -14 16
-14 4 0 12 6 16 14 7 10 9 10 9 0 0 -7 5 -10 10 -7 6 3 10 1 10 -4 0 -6 -4
-11 -10 -11 -5 0 -10 -5 -10 -11 0 -7 -8 -18 -17 -26 -12 -9 -13 -12 -3 -8 8
4 4 -3 -10 -15 -14 -12 -18 -19 -10 -15 10 4 9 2 -2 -8 -10 -8 -15 -17 -11
-20 3 -4 -2 -9 -11 -13 -9 -3 -16 -12 -16 -20 0 -8 -4 -14 -10 -14 -5 0 -10
-6 -10 -14 0 -8 -7 -17 -16 -20 -9 -3 -14 -11 -12 -18 3 -7 -3 -20 -11 -30 -9
-10 -16 -24 -16 -31 -1 -7 -7 -11 -15 -9 -8 2 -12 1 -8 -3 3 -3 0 -18 -7 -32
-8 -15 -12 -30 -9 -35 3 -4 1 -8 -5 -8 -10 0 -27 -38 -23 -52 1 -5 -3 -8 -10
-8 -6 0 -8 -3 -5 -7 4 -3 1 -13 -6 -21 -8 -11 -8 -13 0 -9 8 5 8 1 0 -17 -7
-13 -15 -23 -18 -20 -3 2 -5 -10 -3 -26 2 -19 -1 -30 -9 -30 -8 0 -7 -4 3 -10
11 -7 11 -10 2 -10 -7 0 -10 -4 -7 -10 3 -5 2 -10 -3 -10 -5 0 -8 -10 -7 -22
1 -12 -2 -39 -5 -60 -4 -20 -4 -36 -1 -33 4 2 7 -5 7 -16 0 -13 -5 -18 -15
-14 -11 4 -11 2 -2 -8 6 -8 10 -25 10 -38 -1 -13 2 -33 6 -43 6 -14 5 -17 -3
-12 -9 5 -9 1 -2 -18 5 -14 7 -34 5 -45 -2 -12 0 -21 6 -21 5 0 9 -17 9 -38 0
-21 6 -44 13 -51 6 -8 7 -11 1 -8 -6 3 -11 0 -11 -8 0 -8 4 -12 9 -9 7 4 13
-34 9 -59 0 -4 4 -7 10 -7 5 0 8 -4 5 -8 -3 -5 1 -21 9 -36 10 -18 10 -25 2
-20 -9 5 -9 3 1 -7 6 -7 12 -21 12 -31 0 -10 5 -18 11 -18 6 0 9 -9 6 -20 -3
-11 -1 -20 5 -20 6 0 8 -7 4 -15 -3 -8 -1 -15 4 -15 6 0 10 -9 10 -20 0 -11 5
-20 11 -20 5 0 8 -4 5 -8 -3 -5 6 -31 19 -59 13 -28 21 -54 17 -57 -3 -3 0 -6
7 -6 8 0 11 -6 7 -16 -3 -8 -2 -12 4 -9 9 6 12 -2 9 -22 0 -3 6 -10 15 -15 9
-5 13 -15 9 -24 -3 -9 -1 -19 6 -23 7 -4 13 -18 14 -29 1 -12 5 -22 9 -22 4 0
8 -9 8 -20 0 -11 4 -20 8 -20 4 0 9 -12 10 -27 1 -16 7 -29 12 -31 6 -2 10
-12 10 -23 0 -10 4 -19 9 -19 6 0 8 -9 6 -20 -2 -11 0 -20 5 -20 4 0 7 -8 6
-17 -2 -10 1 -20 5 -23 5 -3 10 -15 12 -27 1 -12 9 -29 17 -39 9 -11 10 -15 3
-10 -7 4 -13 3 -13 -3 0 -5 6 -12 13 -14 9 -4 8 -6 -2 -6 -11 -1 -11 -4 -1
-16 7 -8 9 -15 4 -15 -5 0 -2 -5 6 -10 11 -7 11 -10 2 -10 -8 0 -10 -5 -5 -12
7 -12 12 -41 15 -100 1 -16 5 -28 10 -28 5 0 4 -10 -3 -21 -8 -15 -8 -19 0
-15 7 5 12 -3 13 -18 2 -47 3 -51 10 -57 5 -3 9 -17 10 -32 1 -15 5 -27 9 -27
4 0 10 -7 13 -16 4 -10 2 -13 -7 -8 -6 4 -3 -3 8 -16 11 -13 15 -20 8 -17 -13
8 25 -72 48 -100 12 -15 12 -16 -1 -9 -9 4 -8 1 3 -7 9 -8 17 -22 17 -31 0 -9
7 -16 16 -16 8 0 12 -4 9 -10 -3 -5 3 -17 15 -27 11 -10 20 -23 20 -31 0 -7 5
-10 10 -7 6 3 10 1 10 -5 0 -6 4 -8 10 -5 5 3 10 -1 10 -10 0 -10 5 -13 11 -9
8 5 10 -1 7 -20 -3 -14 -1 -29 5 -33 6 -4 7 -1 2 7 -5 9 -4 11 4 6 7 -5 9 -12
3 -19 -4 -7 -7 -21 -5 -32 1 -11 5 -49 8 -85 7 -81 10 -98 17 -105 3 -4 3 -19
-2 -34 -4 -16 -4 -34 0 -41 5 -7 4 -24 -1 -37 -5 -15 -5 -23 2 -23 6 0 6 -7
-1 -20 -6 -11 -7 -20 -3 -20 5 0 8 -16 8 -35 0 -19 -4 -35 -9 -35 -5 0 -3 -6
3 -14 9 -10 9 -16 1 -21 -8 -5 -8 -11 1 -21 7 -8 7 -14 1 -14 -5 0 -10 -12
-10 -28 0 -15 -3 -40 -6 -57 -4 -16 -7 -36 -8 -42 -1 -7 -5 -13 -10 -13 -4 0
-7 -3 -6 -8 5 -13 -41 -64 -51 -58 -5 3 -11 2 -13 -4 -1 -5 -12 -11 -23 -13
-11 -1 -26 -6 -32 -10 -8 -5 -13 -3 -13 5 -1 9 -4 8 -10 -3 -6 -10 -20 -15
-35 -14 -14 2 -25 -1 -25 -6 0 -4 -7 -6 -15 -3 -8 4 -15 2 -15 -3 0 -5 -10
-10 -22 -11 -13 0 -39 -4 -58 -7 -19 -4 -41 -7 -47 -8 -7 0 -13 -4 -13 -8 0
-4 -8 -8 -17 -8 -44 -1 -59 -4 -72 -15 -12 -9 -13 -8 -6 4 7 13 6 13 -7 2 -9
-7 -22 -12 -30 -11 -26 3 -39 -1 -32 -12 4 -8 0 -8 -15 0 -11 7 -21 8 -21 4 0
-4 -13 -9 -28 -10 -42 -3 -56 -7 -64 -18 -5 -6 -8 -5 -8 4 0 11 -3 11 -15 1
-8 -6 -18 -9 -23 -6 -5 3 -23 1 -41 -4 -21 -6 -31 -5 -31 3 0 6 -7 2 -15 -9
-10 -13 -14 -15 -15 -5 0 11 -5 9 -22 -5 -12 -10 -18 -13 -14 -6 4 6 2 12 -3
12 -6 0 -11 -4 -11 -9 0 -5 -7 -17 -16 -25 -12 -12 -12 -16 -2 -16 11 0 11 -2
0 -9 -11 -6 -8 -14 11 -35 18 -19 27 -23 30 -14 4 11 6 10 6 0 1 -7 6 -10 11
-7 6 4 18 1 27 -7 14 -11 16 -11 8 2 -6 12 -5 13 6 3 7 -7 27 -13 44 -13 22 0
32 -5 32 -15 0 -8 -6 -15 -13 -15 -6 0 -14 -8 -18 -17 -3 -10 -9 -24 -12 -32
-4 -9 -2 -11 5 -7 8 5 8 0 1 -18 -7 -20 -6 -24 4 -20 8 3 17 0 21 -5 3 -6 11
-9 16 -6 5 4 9 2 9 -3 0 -5 7 -9 15 -9 8 0 15 4 15 9 0 5 8 5 18 0 9 -5 25 -8
35 -7 9 2 17 -2 17 -8 0 -8 3 -8 8 -2 9 14 74 16 65 2 -4 -6 -1 -7 8 -1 20 12
61 12 78 0 11 -8 13 -8 7 2 -8 14 19 12 43 -2 11 -7 12 -6 6 5 -8 12 -6 12 8
0 12 -10 17 -10 17 -2 0 19 34 -19 37 -41 4 -23 28 -50 37 -41 3 4 6 2 6 -4 0
-7 11 -8 33 -3 46 11 67 21 67 32 0 5 5 6 10 3 6 -3 10 -1 10 4 0 6 6 11 14
11 8 0 16 5 18 11 2 5 12 11 22 13 10 1 24 9 30 17 6 8 17 15 25 17 7 1 19 9
27 17 8 7 23 17 34 20 11 3 20 11 20 16 0 6 5 7 10 4 6 -3 10 -1 10 5 0 6 4 9
9 5 6 -3 15 4 21 15 6 11 15 18 20 15 5 -3 13 3 19 12 6 10 11 14 11 9 0 -5 9
1 20 14 11 13 20 20 20 16 0 -4 15 7 33 25 17 18 31 36 29 41 -1 4 2 8 8 8 5
0 10 9 10 19 0 11 5 23 12 27 7 5 9 2 4 -7 -4 -8 0 -5 9 6 9 11 21 19 27 17 8
-2 8 1 0 11 -9 10 -9 16 0 25 9 9 9 12 0 12 -7 0 -12 8 -12 18 0 10 -5 23 -12
30 -9 9 -9 12 2 12 13 1 13 2 0 13 -8 7 -16 21 -18 32 -2 11 -6 34 -8 50 -3
17 -5 40 -5 53 1 13 -3 21 -7 18 -4 -2 -9 5 -9 17 -2 18 0 19 8 7 9 -12 9 -11
4 5 -4 11 -8 26 -8 33 0 6 -4 12 -8 12 -5 0 -4 11 1 25 5 14 6 27 0 30 -5 3
-7 14 -5 25 2 11 0 20 -6 20 -5 0 -9 5 -9 11 0 5 3 8 8 6 9 -6 7 87 -3 102 -3
6 -1 11 4 11 6 0 11 5 11 11 0 5 -4 8 -8 5 -4 -2 -8 4 -9 14 -1 11 2 22 8 25
5 4 9 11 9 16 0 6 -4 7 -10 4 -5 -3 -10 -1 -10 4 0 6 4 11 9 11 4 0 7 15 7 33
-1 17 3 35 8 39 7 5 6 8 -2 8 -7 0 -11 4 -7 9 8 13 14 65 18 146 5 87 21 124
59 132 15 3 25 10 22 15 -3 5 2 8 12 6 11 -2 18 2 17 9 -2 7 0 12 5 11 14 -3
62 14 62 22 0 5 14 11 30 15 17 4 30 13 30 20 0 7 8 12 18 11 9 -2 20 2 24 8
8 13 108 16 108 3 0 -4 4 -6 9 -2 5 3 12 1 16 -5 4 -6 10 -8 15 -5 5 3 11 1
15 -5 3 -5 17 -10 31 -10 13 0 24 -4 24 -10 0 -5 11 -10 24 -10 14 0 28 -5 31
-10 4 -6 11 -8 16 -5 5 4 9 1 9 -5 0 -6 5 -8 10 -5 6 3 10 1 10 -4 0 -6 9 -11
20 -11 11 0 20 -4 20 -10 0 -5 6 -9 13 -7 6 1 11 -4 9 -11 -2 -10 2 -10 20 -1
13 6 20 8 16 4 -9 -10 39 -48 51 -41 5 4 12 -3 16 -14 3 -11 13 -20 21 -20 8
0 14 -5 14 -11 0 -5 5 -7 12 -3 6 4 8 3 5 -4 -4 -5 12 -24 35 -41 23 -17 38
-31 32 -31 -5 0 -1 -5 9 -11 9 -6 14 -15 11 -21 -4 -6 -3 -8 3 -5 12 7 46 -26
38 -36 -3 -4 -2 -5 1 -3 9 6 111 -98 106 -108 -3 -5 0 -6 7 -2 6 4 14 1 17 -8
3 -8 14 -18 23 -21 10 -3 24 -17 31 -30 9 -17 16 -21 21 -14 4 8 9 5 13 -8 4
-11 17 -26 31 -33 13 -7 22 -17 19 -22 -3 -4 -1 -8 4 -8 5 0 9 -13 8 -30 0
-16 -4 -30 -8 -30 -5 0 -8 -5 -8 -11 0 -5 5 -7 10 -4 6 3 10 1 10 -4 0 -6 -6
-11 -12 -11 -9 0 -8 -4 2 -10 8 -5 10 -10 4 -10 -5 0 -10 -15 -9 -33 1 -17 -3
-40 -8 -50 -5 -11 -4 -23 3 -32 8 -10 8 -15 0 -20 -6 -4 -9 -13 -6 -21 3 -8 2
-14 -2 -14 -4 0 -7 -15 -7 -32 1 -18 -3 -39 -9 -47 -9 -12 -8 -13 4 -6 12 7
13 6 4 -6 -6 -8 -10 -24 -9 -37 1 -12 -3 -22 -8 -22 -6 0 -7 -3 -4 -7 4 -3 1
-13 -6 -21 -9 -13 -9 -14 1 -8 6 4 12 3 12 -3 0 -5 -4 -12 -10 -16 -5 -3 -7
-12 -3 -20 3 -8 0 -15 -6 -15 -6 0 -8 -7 -4 -17 5 -12 3 -14 -8 -8 -12 8 -12
6 0 -8 9 -11 10 -17 2 -17 -6 0 -10 -3 -10 -7 4 -23 -2 -54 -9 -49 -7 4 -11
-10 -14 -51 -1 -7 -4 -13 -8 -13 -3 0 -12 -16 -19 -35 -7 -19 -17 -35 -23 -35
-5 0 -8 -7 -4 -15 3 -8 1 -15 -5 -15 -5 0 -21 -12 -35 -28 -14 -15 -23 -20
-19 -12 4 8 -2 5 -12 -6 -10 -12 -35 -28 -55 -35 -21 -7 -38 -17 -38 -22 0 -5
-6 -7 -14 -4 -8 3 -16 2 -18 -3 -2 -5 -10 -10 -18 -12 -8 -2 -21 -11 -28 -21
-7 -9 -18 -15 -23 -11 -6 3 -20 -2 -31 -13 -14 -12 -18 -13 -13 -3 8 13 7 13
-8 1 -9 -7 -17 -10 -17 -5 0 4 -12 -3 -27 -17 -14 -13 -23 -17 -19 -9 7 13 6
13 -6 0 -7 -8 -22 -15 -33 -15 -11 1 -27 -6 -35 -15 -8 -8 -23 -16 -32 -18 -9
-1 -29 -9 -44 -17 -15 -8 -31 -12 -36 -9 -4 3 -8 1 -8 -3 0 -5 -10 -9 -22 -10
-11 -1 -24 -6 -27 -11 -3 -5 -14 -8 -24 -6 -9 1 -15 -2 -11 -7 3 -5 0 -9 -6
-9 -18 0 -37 -24 -32 -39 3 -9 0 -11 -9 -6 -8 5 -5 -2 6 -15 11 -13 14 -20 8
-16 -7 4 -13 3 -13 -3 0 -9 44 -28 46 -20 0 2 8 -2 17 -9 11 -10 17 -10 22 -1
6 8 10 7 16 -2 7 -11 9 -11 9 1 0 13 1 13 10 0 9 -13 11 -13 20 0 8 12 10 12
10 1 0 -9 4 -10 13 -4 6 5 29 8 50 7 21 -1 37 3 37 10 0 6 5 4 10 -4 9 -13 11
-13 20 0 7 11 10 12 10 2 0 -8 6 -12 13 -9 15 5 67 -20 88 -44 9 -10 19 -16
23 -12 3 3 6 1 6 -4 0 -19 83 -74 102 -67 11 3 18 0 18 -8 0 -10 3 -9 10 2 6
10 10 11 10 3 0 -9 7 -10 26 -3 14 6 30 8 35 4 5 -3 9 0 9 6 0 6 5 8 10 5 6
-3 10 -1 10 5 0 6 5 8 10 5 6 -4 23 0 39 8 22 11 32 12 42 3 9 -8 10 -8 5 2
-7 11 10 17 42 13 6 -1 12 2 12 6 0 4 11 8 25 8 14 0 25 -4 25 -8 0 -5 4 -6 9
-2 5 3 12 1 16 -5 4 -6 11 -8 16 -5 5 4 9 1 9 -5 0 -6 4 -8 10 -5 5 3 10 2 10
-4 0 -5 9 -8 20 -6 11 2 18 0 15 -4 -2 -5 10 -12 28 -16 42 -11 107 -14 102
-5 -2 3 5 12 15 20 10 8 16 18 12 24 -3 6 -8 20 -9 31 -2 10 -8 22 -14 26 -6
3 -11 10 -12 15 -1 5 -6 8 -10 6 -5 -1 -6 2 -2 8 3 6 -1 17 -9 26 -9 9 -14 20
-11 25 4 5 1 9 -5 9 -6 0 -9 4 -6 9 4 5 3 11 -1 13 -5 1 -18 22 -30 46 -12 24
-17 40 -10 37 7 -4 5 -1 -3 7 -9 7 -14 21 -12 32 3 13 0 16 -9 11 -9 -6 -11
-3 -6 8 3 10 2 17 -4 17 -6 0 -8 8 -4 19 3 10 -1 23 -8 29 -8 7 -12 26 -11 47
2 20 0 33 -5 31 -4 -3 -8 1 -8 9 0 8 4 12 10 8 5 -3 7 10 6 30 -2 20 0 39 4
43 4 4 1 14 -6 22 -10 13 -9 14 2 8 10 -7 12 -3 6 13 -4 12 -2 21 4 21 13 0
10 22 -4 32 -7 5 -6 8 0 8 10 0 13 8 18 60 1 14 7 28 12 32 6 5 5 8 -4 8 -9 0
-10 4 -4 13 5 6 10 26 12 42 2 17 8 33 15 37 7 5 6 8 -4 8 -10 0 -11 3 -4 8 6
4 10 15 8 25 -1 9 1 17 5 17 4 0 7 8 8 18 3 42 14 97 22 106 5 6 7 19 6 29 -2
9 1 17 6 17 6 0 8 4 5 8 -2 4 -1 14 4 22 5 9 4 20 -2 28 -9 10 -8 12 3 10 8
-2 13 3 11 11 -1 7 4 24 13 37 14 22 14 23 -2 18 -15 -5 -15 -3 1 10 11 9 16
16 12 16 -5 0 -2 8 5 17 9 11 10 14 2 9 -9 -5 -11 -2 -7 8 3 9 11 13 17 9 6
-3 7 -1 3 5 -4 7 10 29 33 53 23 22 41 45 41 50 0 6 5 7 12 3 7 -4 8 -3 4 4
-4 7 5 24 21 39 15 14 21 23 13 19 -8 -4 -5 1 7 12 12 11 19 23 15 27 -4 3 0
12 8 18 9 7 24 29 33 49 10 20 22 40 27 43 6 4 8 10 5 15 -3 5 1 15 9 23 8 8
13 17 9 20 -3 3 4 18 15 34 20 28 22 33 22 54 0 5 4 8 9 4 6 -3 8 4 6 15 -2
11 1 20 7 20 6 0 8 9 5 20 -3 11 0 18 6 17 6 -1 12 4 13 11 1 6 2 17 3 23 0 5
5 7 11 4 6 -4 7 1 3 10 -3 10 0 20 6 25 7 4 13 14 15 22 1 8 10 27 19 42 10
15 15 31 12 36 -3 5 0 12 5 15 12 7 34 55 32 68 -1 4 3 7 9 7 5 0 8 4 4 9 -3
6 5 20 17 32 13 12 16 18 8 14 -9 -5 -7 1 5 15 12 14 14 20 5 15 -8 -4 -5 3 8
17 12 13 22 32 22 41 0 9 5 17 12 17 6 0 8 3 5 7 -4 3 0 15 10 25 9 10 13 18
9 18 -4 0 1 13 10 29 10 17 21 28 25 25 4 -2 6 7 3 22 -4 20 -1 25 9 21 7 -3
14 1 15 9 1 8 3 21 4 29 1 8 8 17 16 20 8 3 11 12 8 20 -3 8 -1 15 4 15 10 0
66 111 62 123 -1 5 2 6 8 2 9 -6 14 7 11 28 0 4 4 7 9 7 6 0 10 7 10 16 0 8 4
13 9 9 6 -3 8 4 6 15 -2 12 2 23 11 27 8 3 13 12 10 20 -3 7 1 16 9 19 8 4 13
10 10 14 -3 5 1 15 8 22 8 7 12 20 9 30 -3 12 1 18 12 18 10 0 14 5 11 10 -4
6 -12 8 -18 4 -7 -3 -5 0 4 8 9 7 14 23 13 36 -2 12 1 22 6 22 6 0 10 5 10 11
0 5 -6 7 -12 3 -7 -4 -5 2 5 13 13 14 15 23 7 28 -8 5 -8 11 -1 19 7 9 7 16
-1 24 -8 8 -9 12 -1 12 6 0 10 11 8 25 -1 14 2 25 8 25 5 0 3 8 -4 17 -12 14
-12 16 0 8 11 -6 13 -3 9 13 -4 12 -3 20 2 17 7 -5 15 7 19 30 2 6 9 14 17 18
8 4 14 15 14 22 0 8 4 15 10 15 5 0 17 16 26 36 9 20 23 38 31 41 7 3 10 9 7
14 -3 5 -1 9 5 9 10 0 27 39 23 54 -2 5 4 6 12 3 13 -5 30 24 27 46 -1 4 6 7
15 7 8 0 12 5 9 10 -3 6 3 23 14 39 11 15 18 31 14 35 -3 3 -1 6 5 6 6 0 9 7
5 17 -4 10 -2 14 5 9 7 -4 10 1 7 14 -2 11 1 20 7 20 6 0 5 6 -2 16 -11 12
-11 15 0 12 10 -2 14 6 14 25 -1 15 3 27 8 27 5 0 4 9 -2 20 -8 15 -8 18 3 14
11 -4 14 2 11 22 -1 15 1 35 6 44 6 11 5 21 -2 28 -9 9 -9 12 1 12 11 0 11 3
0 17 -8 9 -9 14 -3 10 7 -4 14 2 17 13 3 12 1 18 -5 14 -6 -4 -7 0 -1 12 5 11
8 36 7 57 0 20 3 37 9 37 5 0 3 8 -4 17 -12 15 -12 16 6 9 17 -6 16 -4 -5 19
-16 17 -19 24 -8 20 13 -5 15 -2 11 14 -3 12 -10 21 -15 21 -6 0 -8 6 -5 14 3
7 0 19 -6 25 -6 6 -8 11 -3 11 4 0 1 7 -6 15 -31 34 -36 43 -30 51 4 4 2 4 -4
1 -7 -4 -17 0 -24 8 -7 8 -16 12 -21 9 -5 -3 -9 -1 -9 5 0 6 -7 7 -17 4 -12
-5 -14 -3 -8 8 8 12 6 12 -8 0 -9 -7 -17 -9 -17 -3 0 12 -79 21 -86 10 -3 -4
-11 -5 -19 -1 -9 3 -15 -1 -15 -8 0 -11 -3 -11 -10 1 -9 13 -10 13 -10 0 0
-12 -2 -12 -9 -2 -7 11 -11 11 -22 -1 -8 -7 -20 -12 -26 -10 -7 3 -21 -1 -33
-7 -23 -12 -55 -21 -82 -23 -9 -1 -15 -4 -12 -8 2 -4 -9 -10 -26 -14 -18 -4
-27 -11 -23 -18 4 -6 0 -8 -9 -4 -9 3 -21 0 -28 -6 -10 -9 -11 -9 -5 1 6 11 3
11 -13 1 -12 -7 -18 -18 -15 -24 4 -5 3 -7 -2 -3 -4 4 -15 2 -23 -5 -13 -9
-14 -9 -8 0 5 9 2 11 -8 7 -9 -3 -13 -11 -10 -16 4 -6 1 -8 -7 -6 -8 3 -22 1
-32 -4 -21 -11 -97 10 -97 26 0 6 -5 4 -10 -4 -7 -11 -10 -11 -10 -2 0 7 -4
11 -9 7 -6 -3 -25 3 -44 14 -27 15 -38 17 -47 8 -10 -9 -11 -9 -5 1 5 10 2 13
-11 10 -11 -3 -31 1 -45 8 -15 7 -29 10 -33 7 -3 -4 -6 0 -6 7 0 7 -3 11 -6 7
-4 -3 -20 1 -36 9 -23 12 -28 12 -23 2 6 -10 5 -11 -6 0 -7 6 -21 12 -31 12
-10 0 -18 5 -18 12 0 6 -3 8 -7 5 -3 -4 -17 0 -30 8 -16 11 -23 12 -23 3 0 -9
-3 -9 -12 0 -7 7 -20 12 -30 12 -10 0 -18 5 -18 12 0 6 -3 9 -6 5 -4 -3 -19 0
-35 9 -16 8 -29 12 -29 9 0 -4 -7 1 -16 9 -8 9 -21 13 -27 9 -7 -4 -8 0 -4 11
4 10 3 15 -4 11 -5 -4 -17 -1 -26 7 -12 9 -15 9 -9 1 5 -9 2 -11 -8 -7 -9 3
-16 10 -16 15 0 5 -9 9 -20 9 -11 0 -20 5 -20 10 0 6 -8 10 -19 10 -10 0 -24
6 -31 14 -6 8 -17 13 -25 10 -7 -3 -16 -1 -20 5 -3 6 -15 11 -26 11 -10 0 -19
4 -19 8 0 4 -12 9 -27 10 -15 1 -30 7 -34 14 -4 6 -14 8 -23 5 -9 -4 -16 -2
-16 4 0 6 -4 7 -10 4 -6 -3 -10 -1 -10 6 0 7 -3 10 -6 6 -4 -3 -20 1 -36 9
-17 9 -27 11 -24 5 4 -6 -9 -4 -29 4 -19 9 -35 12 -35 9 0 -4 -7 -1 -15 6 -12
10 -15 10 -15 -1 0 -11 -2 -11 -8 -1 -5 7 -25 15 -46 17 -21 3 -42 7 -46 10
-5 3 -11 -1 -13 -7 -4 -9 -6 -8 -6 3 -1 11 -10 15 -36 14 -19 -1 -35 2 -35 8
0 5 -5 5 -13 -2 -9 -6 -17 -7 -23 -1 -8 8 -37 16 -66 19 -5 1 -8 8 -8 17 0 8
-5 12 -11 8 -8 -5 -8 -1 0 13 7 14 7 24 -2 33 -9 10 -9 11 2 5 10 -6 12 -4 6
5 -13 21 -15 173 -3 188 8 10 7 11 -8 5 -17 -6 -17 -5 -5 10 10 13 11 17 1 17
-9 0 -7 7 5 20 13 14 14 19 4 15 -11 -4 -14 5 -12 50 1 30 -2 57 -8 61 -7 4
-6 10 1 19 8 10 8 15 0 20 -8 5 -8 11 1 21 9 11 9 14 -1 14 -10 0 -10 3 0 15
10 12 10 15 0 15 -10 0 -10 4 1 16 8 10 9 18 2 22 -12 8 -11 41 2 61 5 9 4 12
-2 8 -14 -9 -12 56 2 65 6 5 5 8 -3 8 -9 0 -10 5 -2 19 7 14 7 22 0 26 -8 5
-7 12 2 23 11 13 11 14 -2 7 -12 -7 -13 -6 -3 6 10 12 10 18 0 29 -9 10 -9 11
1 6 8 -5 12 0 12 14 0 14 -4 19 -12 14 -10 -6 -10 -5 -1 7 7 9 11 32 10 52 -2
20 1 37 6 37 6 0 7 3 4 7 -4 3 -1 13 6 21 10 13 9 14 -1 8 -10 -6 -11 -1 -7
21 4 15 8 59 10 96 2 38 10 76 17 85 9 12 10 14 1 8 -7 -4 -13 -3 -13 1 0 5 6
15 13 22 10 11 9 12 -3 6 -13 -8 -13 -7 -1 8 11 14 11 17 0 17 -9 0 -10 3 -4
8 6 4 10 23 10 42 0 19 5 38 10 42 6 5 4 8 -4 8 -11 0 -9 5 5 22 10 12 13 18
7 14 -8 -4 -13 -1 -13 9 0 9 4 14 8 11 5 -3 9 1 9 9 0 8 -4 12 -8 9 -4 -2 -6
8 -4 23 2 16 4 28 5 28 1 0 2 21 3 48 1 26 -1 47 -5 47 -8 0 -3 34 7 50 3 6 1
10 -6 10 -8 0 -9 3 0 13 6 8 9 16 6 19 -6 6 -24 98 -19 98 2 0 13 -10 26 -23
13 -12 43 -38 68 -57 25 -19 47 -37 50 -41 3 -3 17 -9 32 -12 38 -10 82 19
105 68 37 76 12 286 -50 435 -6 14 -11 27 -11 30 -4 16 -84 173 -112 217 -31
48 -31 51 -12 56 11 3 29 3 41 1 72 -16 76 -16 83 11 9 37 -3 86 -29 118 -19
25 -32 30 -83 34 -57 5 -63 3 -88 -23 l-27 -29 -26 30 c-99 117 -273 275 -302
275 -6 0 -11 4 -11 8 0 13 -151 90 -218 111 -33 11 -91 23 -129 26 -37 4 -71
9 -74 11 -3 2 -9 1 -11 -2z m115 -1317 c-4 -7 1 -6 11 2 14 12 21 13 38 2 14
-8 18 -9 13 -1 -4 7 7 5 24 -4 17 -9 31 -14 31 -11 0 3 9 -4 21 -16 11 -11 18
-27 15 -35 -3 -8 -1 -14 3 -14 5 0 8 -8 6 -17 -1 -10 2 -24 8 -30 6 -9 6 -13
-2 -13 -7 0 -9 -5 -5 -12 11 -18 10 -118 -1 -118 -5 0 -3 -5 5 -10 12 -8 12
-10 1 -10 -11 0 -11 -3 -1 -15 10 -12 10 -15 0 -15 -7 0 -10 -7 -7 -15 4 -8 2
-17 -4 -20 -5 -4 -7 -10 -4 -15 3 -5 1 -19 -5 -30 -8 -15 -8 -20 2 -21 11 0
11 -2 0 -6 -10 -4 -10 -8 -1 -19 10 -12 9 -13 -5 -8 -9 3 -16 13 -16 21 0 8
-4 11 -10 8 -5 -3 -10 3 -10 15 0 12 -4 19 -9 16 -5 -4 -15 7 -22 23 -7 16
-17 27 -21 25 -4 -3 -8 2 -8 10 0 9 -7 16 -16 16 -8 0 -12 5 -9 10 3 6 -1 10
-9 10 -9 0 -16 6 -16 14 0 8 -5 18 -12 22 -7 4 -8 3 -4 -4 4 -7 3 -12 -3 -12
-5 0 -13 9 -16 20 -3 11 -13 20 -21 20 -8 0 -14 5 -14 11 0 5 -4 8 -9 5 -5 -3
-11 1 -15 9 -3 8 -12 15 -21 15 -8 0 -15 4 -15 9 0 5 -7 12 -16 15 -10 4 -13
2 -8 -7 4 -6 -2 -4 -13 6 -11 9 -23 14 -28 10 -4 -5 -2 2 4 15 6 12 14 22 17
22 3 0 2 -6 -1 -12 -4 -7 1 -4 10 7 9 11 21 19 26 18 5 -2 8 0 7 5 -3 10 34
52 47 53 5 0 26 17 45 38 32 35 60 46 43 18z m-253 -248 c0 -5 7 -9 16 -9 23
0 94 -42 88 -52 -3 -4 4 -8 15 -8 12 0 21 -5 21 -11 0 -5 5 -7 10 -4 6 3 10
-1 10 -9 0 -9 4 -16 9 -16 13 0 52 -38 80 -78 12 -18 27 -30 32 -26 5 3 8 2 7
-3 -4 -12 34 -93 44 -93 4 0 8 -9 8 -19 0 -11 5 -23 10 -26 11 -7 9 -90 -3
-101 -4 -4 -2 -13 5 -21 8 -11 7 -12 -6 -7 -12 5 -15 2 -10 -10 3 -9 0 -24 -7
-33 -10 -11 -10 -14 -2 -9 9 5 11 2 7 -8 -3 -9 -11 -16 -16 -16 -6 0 -5 -6 2
-15 9 -10 9 -15 1 -15 -6 0 -10 -3 -10 -7 1 -5 0 -11 -1 -15 -4 -13 -7 -27 -9
-39 0 -5 -7 -7 -13 -3 -10 6 -10 4 0 -8 9 -11 10 -18 2 -23 -5 -3 -10 -15 -10
-26 0 -10 -6 -19 -12 -19 -10 0 -10 -2 0 -9 11 -7 10 -9 -3 -14 -9 -4 -15 -12
-14 -19 3 -25 -1 -39 -10 -34 -5 4 -8 -2 -6 -11 1 -10 -7 -33 -18 -52 -14 -23
-16 -32 -6 -26 9 6 9 2 -3 -11 -9 -10 -18 -23 -20 -29 -2 -5 -6 -9 -10 -8 -5
2 -8 -3 -8 -10 0 -8 -4 -7 -10 3 -5 8 -10 11 -10 7 0 -12 -30 20 -30 32 0 6
-3 10 -7 9 -17 -4 -53 14 -47 24 5 7 2 8 -7 2 -14 -9 -24 -10 -75 -13 -16 -1
-23 -5 -18 -13 5 -7 2 -9 -9 -5 -8 3 -18 0 -21 -8 -4 -11 -10 -11 -30 -2 -14
7 -26 18 -26 26 0 8 -6 11 -15 7 -8 -3 -15 0 -15 7 0 8 -4 6 -10 -3 -5 -8 -10
-10 -10 -4 0 5 -11 10 -25 10 -14 0 -25 -4 -25 -8 0 -4 -12 -8 -26 -8 -17 0
-23 -4 -19 -12 4 -7 -2 -3 -13 9 -11 12 -22 19 -26 16 -3 -3 -8 2 -12 11 -3 9
-10 16 -15 16 -11 0 -49 37 -49 48 0 4 -13 16 -29 26 -16 11 -27 26 -24 33 3
7 -2 13 -10 13 -8 0 -18 11 -21 25 -4 14 -10 24 -14 24 -19 -3 -25 2 -12 11
10 6 11 10 3 10 -7 0 -13 9 -13 20 0 11 -4 20 -10 20 -5 0 -10 9 -10 21 0 11
-4 18 -9 14 -6 -3 -8 4 -6 15 2 11 0 20 -5 20 -4 0 -7 8 -6 18 2 9 0 19 -5 22
-4 3 -9 22 -11 43 -1 20 -7 37 -13 37 -6 0 -7 3 0 8 6 4 10 14 10 22 0 8 -4
18 -10 22 -6 5 -4 8 5 8 13 0 13 1 0 10 -8 5 -10 10 -5 10 6 0 11 14 12 30 2
22 -1 29 -10 23 -7 -4 -5 1 3 11 14 18 22 44 24 82 1 14 6 20 15 16 9 -3 12
-1 7 6 -3 6 -2 13 4 17 6 4 8 10 5 15 -3 5 3 13 12 19 10 6 14 11 10 11 -5 0
14 22 41 49 51 50 74 56 110 28 9 -7 11 -5 6 8 -6 14 -4 16 6 10 22 -13 242
-8 250 6 4 6 13 8 19 5 6 -4 11 0 11 9 0 9 5 13 10 10 6 -3 10 -2 10 4 0 6 7
8 15 5 8 -4 15 -10 15 -15z m-222 -1039 c2 -3 5 -4 38 -15 24 -8 22 -45 -2
-45 -8 0 -14 -4 -14 -9 0 -5 -7 -12 -16 -15 -8 -3 -12 -2 -9 3 3 5 -3 12 -14
16 -10 3 -18 11 -18 18 1 34 -4 48 -15 41 -6 -4 -8 -3 -5 3 6 9 47 11 55 3z
m305 -81 c-3 -10 -11 -23 -18 -29 -8 -6 -12 -17 -9 -24 3 -7 -7 -18 -21 -26
-14 -7 -25 -19 -25 -25 0 -8 -10 -10 -25 -7 -14 2 -25 9 -25 14 0 5 -7 16 -15
24 -18 19 -20 38 -2 28 6 -4 4 2 -6 13 -13 15 -15 23 -7 28 6 4 9 13 6 21 -4
11 7 14 60 13 35 -1 68 1 71 5 10 10 21 -14 16 -35z m-235 -96 c-4 -14 13 -53
23 -53 5 0 9 -7 9 -16 0 -10 5 -14 16 -10 8 3 13 2 11 -2 -6 -8 13 -26 32 -30
40 -8 51 -70 25 -129 -10 -21 -16 -41 -16 -45 1 -5 -5 -8 -14 -8 -14 0 -15 -2
-3 -17 10 -11 10 -14 2 -9 -12 7 -18 -11 -14 -37 1 -5 -3 -6 -9 -2 -5 3 -10 1
-10 -6 0 -8 -4 -8 -12 -1 -7 5 -24 9 -38 7 -14 -1 -33 0 -42 4 -30 10 -5 31
40 33 25 1 42 6 42 13 0 15 -25 37 -33 29 -3 -3 -16 -7 -29 -8 -19 -2 -24 2
-26 21 -1 17 2 22 11 17 9 -6 9 -4 -1 8 -9 12 -10 18 -2 23 8 5 8 10 0 20 -8
9 -8 15 0 20 7 4 7 13 -1 27 -6 11 -7 18 -2 15 5 -3 10 21 11 54 1 33 4 64 7
69 3 4 -1 11 -7 13 -7 3 -3 6 10 6 12 1 21 -2 20 -6z"/>
<path d="M3910 2350 c0 -5 5 -10 11 -10 5 0 7 5 4 10 -3 6 -8 10 -11 10 -2 0
-4 -4 -4 -10z"/>
</g>
</svg>
